<svg xmlns="http://www.w3.org/2000/svg" viewBox="0 0 3952 1307.47"><defs><style>.cls-1{fill:#fff;}.cls-2{fill:#87754e;}</style></defs><title>logo-2018</title><g id="Layer_2" data-name="Layer 2"><g id="Layer_1-2" data-name="Layer 1"><path id="white" class="cls-1" d="M533.24,40.35c-2.56-8-8.92-26.22-11.22-33.89-2.46-8.15-10.41-8.83-12.28-.67s-6.8,24.66-9.53,32.72c-3.74,11.08-11.47,41.3-11.47,41.3s11-1.38,26.61-1.84a194.83,194.83,0,0,1,28.91,1.38s-8.29-30.49-11-39"/><path id="white-2" data-name="white" class="cls-1" d="M547.78,1294.3c13-5.83,130.72-59.12,246.89-134.15C963,1051.4,1043.31,952.66,1040.14,858.31V238.11l-38.46-18.49c-2.12-1-214.36-101.46-494.56-101.46-165.47,0-322.88,34-467.77,101L0,237.4V859.32c-.78,86.54,80.51,181,255.8,297.35,114.67,76.08,228.92,133.86,233.73,136.3l28.83,14.51Z"/><path id="gold" class="cls-2" d="M524.68,1242.68c19-8.54,466.15-210.49,458.91-383.33V273.66l-6.42-3.08c-2-1-202.57-95.89-470.06-95.89-157.25,0-306.61,32.24-444,95.82l-6.57,3V859.61c-.74,63.8,76.82,148,230.54,249.94,112.52,74.64,226.76,132.34,227.92,132.91l4.8,2.42Z"/><path id="white-3" data-name="white" class="cls-1" d="M417.29,417.5c-1.16-.87-42,3.93-42.81,6.1s8.3,82.3,8.3,82.3,10.26-3.34,16.84-4.21,17.44-2.54,17.44-2.54,1.4-80.78.24-81.65"/><path id="white-4" data-name="white" class="cls-1" d="M427.81,437.7l-1.45,54.21s37.39-6.07,88.59,32.5c34.11,23.62,33.25,66.17,33.25,66.17l82.5,4.69s8.13-38.78,24.39-55.66c24.7-26.26,51.78-32.35,51.78-32.35l4.16-44c-1.36-.52-35.35,10.32-64.27,27.21-27.17,15.87-52,42.88-52,42.88s-22.67-35.15-60.89-66.18c-43.68-36.34-106.08-29.46-106.08-29.46"/><path id="white-5" data-name="white" class="cls-1" d="M213.95,504.36s37.92-28,68.39-46.24,83.38-35.06,83.38-35.06l.45,7.63s-57.64,17.67-104.39,56.4C230.48,513,208.69,589,208.69,589v-77.1Z"/><path id="white-6" data-name="white" class="cls-1" d="M133.72,398.68s-12.45-19.06-11-40c1.36-19.48,11.53-40.86,32.48-58.68C167.89,289.23,193,273.56,216,264.38c60.8-22.09,145.26-43.6,272.24-45.52,118.75-1.8,160.49-.58,223.36,12s103.25,26.75,137.26,44,59.93,50,66.68,66.51,6.3,28.46,2.61,36.48A81.08,81.08,0,0,1,909.6,392a164.28,164.28,0,0,0,4.27-20.45c1.47-9.18-1.54-16.68-6.82-25.57-8.85-14.26-30.71-33.74-68.81-52.43S702.5,254.84,702.5,254.84s-104-19.42-215.12-18.55-213.1,31.24-264.88,49.5c-25.75,11.22-45.59,24.42-52.1,30.4s-14.79,13.7-21.42,24.22c-17,27-15.26,58.28-15.26,58.28"/><path id="white-7" data-name="white" class="cls-1" d="M190.37,485.51S135.06,455.2,142.61,410c5.21-31.26,25.38-70.32,56.65-88.56,41.2-24,88.22-34.7,122.09-42.52s95.69-23.5,183.4-24.37c82.57-.82,117.24,8.68,158.93,14.76s99.81,17.11,135.69,30.87,58.31,23.76,82.07,49.4c23.78,24.35,31.48,59.55,19.32,82.13s-55.58,61.66-55.58,61.66,37.34-40,47.77-65.13-18.63-52.5-36-65.53-27.8-23.52-83.38-40-140.29-27.33-140.29-27.33-59.93-8.68-118.11-8.68a866.07,866.07,0,0,0-156.48,14.75c-41.35,7.92-115.11,26.12-139.43,40S166.92,382.17,157.37,416c-9,31.83,33,69.48,33,69.48"/><polygon id="white-8" data-name="white" class="cls-1" points="178.39 650.95 223.64 621.25 247.87 621.25 317.34 642.87 316.47 651.82 247 632.72 227.89 633.59 178.39 658.77 178.39 650.95"/><polygon id="white-9" data-name="white" class="cls-1" points="644.57 591.46 540.66 582.76 531.28 610.11 534.35 621.25 545.66 595.27 645.44 601.88 644.57 591.46"/><path id="white-10" data-name="white" class="cls-1" d="M427.46,413.42v8.69s66.49-.12,99.7,21.63c26.76,17.54,69,65.67,69,65.67s19-18.88,49.25-34.82S711.2,448,711.2,448s1.56-9.18,1.13-9.36c-27.49-11.75-109-21.57-161.55-26.91-63.55-6.46-123.32,1.74-123.32,1.74"/><polygon id="white-11" data-name="white" class="cls-1" points="426.97 394.34 418.55 407.81 369.72 413.71 358.69 402.59 426.97 394.34"/><path id="white-12" data-name="white" class="cls-1" d="M773.58,464l-10.1,48.75s26.18,13.41,37.15,35.34c9.59,19.18,10.41,71.47,8.9,78.5l25.72,7.55s-2.9-53-4-82.59C829.54,498.35,773.58,464,773.58,464"/><path id="white-13" data-name="white" class="cls-1" d="M639.42,614.11s-17.06-.78-22.36-1.06c-7.19,1.6-15.14,15.22-15.14,15.22s-3.77-15.06-14-16.61-32.5-1.55-32.5-1.55-3.62,5.15-5.33,7.81-4.09,12.65-1.9,17.53c2.48,5.52,4.62,4.95,4.43,7s-8.45,7.33-9.21,11.52c-.39,2.13,8.06,12.67,8.06,12.67l-3.79,552.87s29.92-14,48.75-24c15.32-8.11,38.91-20.51,38.91-20.51s-7.47-500.31-6.71-502.59,4-6.51,4.59-13.67c0-5.35-4.84-8.28-3.13-10.75s8.77,1.33,14.1-6.67,6.29-13.52,4.38-19.43-9.14-7.81-9.14-7.81"/><path id="white-14" data-name="white" class="cls-1" d="M848.42,660.16s-14.6-1.93-19.16-2.23c-8.54.57-16.51,8.54-16.51,8.54s-4.29-12.59-13.09-14.23A147.76,147.76,0,0,0,779,650.45s-21.31,13.91-16.09,25.07c2.63,5.62,11.86,5.81,11.69,8a18.19,18.19,0,0,1-2.42,9.22c-1.88,3.48,3.48,9.42,3.48,9.42l3.09,387.32s23.51-16,35.77-25c11.35-8.33,29.26-22,29.26-22s-8.94-335.42-8.28-337.83,5.39-3.32,6.53-5.53-2.13-9.85-.66-12.45,6.63.84,12.13-7c3.58-5.12,4-7,2.86-11.79-1.52-6.26-8-7.68-8-7.68"/><path id="white-15" data-name="white" class="cls-1" d="M238.21,643.31c-13.71-1-26.47,18-28.74,19.08s-32.08-3-31.79,7.95c.39,14.56,29.36,10.7,32.93,18.16s-8.85,346-8.85,346,7.41,6,33.26,25.26S276.79,1089,276.79,1089s7.81-397.13,12.14-400.48,37.35-3.17,31.79-17c-8.7-21.67-45.48-4.12-47.41-4.84s-21.39-22.3-35.1-23.32"/><polygon id="white-16" data-name="white" class="cls-1" points="776.25 622.87 848.91 631.95 848.91 642.17 778.52 631.95 760.36 650.12 755.81 642.17 776.25 622.87"/><path id="white-17" data-name="white" class="cls-1" d="M373,502.84s-47.12,14.36-74.56,43.24c-22.74,23.94-28.48,87.73-28.48,87.73l-32.38-5-27.44,5s12.78-79,48.84-124.41,108.69-64,108.69-64Z"/><path id="white-18" data-name="white" class="cls-1" d="M766.1,453.71c-1-.93-41.65-6.51-42.8-5s-6.58,65-6.58,65a150.27,150.27,0,0,1,17.16.59C740.44,515.07,752,518,752,518s15.07-63.39,14.09-64.32"/><polygon id="white-19" data-name="white" class="cls-1" points="784.06 434.58 772.26 445.2 723.69 437.4 716.15 423.68 784.06 434.58"/><path id="white-20" data-name="white" class="cls-1" d="M414.22,623.59c-2.89-3.56,27-12.61,67.38-14.75-22.82-19.69,9.85-24.62,5.07-31.78-9.41-14.12,19-28.57,16-31.25C476,521.5,457,518,457,518c-9.61,6.81,1.42,50.94-38.22,86.3a99.89,99.89,0,0,0-10.6,10.55c-5.78,7.1-3.32,13,3.4,16.94s23.28,6.63,39.28,8.52c12.93,1.53,41.45,2.25,51.9,2.47a19.67,19.67,0,0,0,2,0c1.25,0,2.75-2.77,2.75-2.77s-42.51-3.32-50.21-4.54c-15.12-2.39-37.3-4.86-43.07-12"/><path id="white-21" data-name="white" class="cls-1" d="M513.76,644.89a18.31,18.31,0,1,1-18.32-18.31,18.31,18.31,0,0,1,18.32,18.31"/><path id="gold-2" data-name="gold" class="cls-2" d="M490.21,636.17a11.34,11.34,0,1,0,11.34-11.34,11.34,11.34,0,0,0-11.34,11.34"/><path id="gold-3" data-name="gold" class="cls-2" d="M526.34,74.5c-84.2,2.61-145.27,57.32-174,79.9s-93.46,102.48-93.46,102.48,124-40.82,251.68-40.82c142.49,0,223.92,16.5,223.92,16.5s-8.33-64.26-50-98.14-74-62.53-158.22-59.92"/><path id="white-22" data-name="white" class="cls-1" d="M496.93,85.15c-79,2.61-136.35,57.32-163.27,79.9S246,267.53,246,267.53s116.37-40.82,236.22-40.82c133.74,0,210.16,16.5,210.16,16.5s-7.82-64.26-46.89-98.13S576,82.55,496.93,85.15"/><g id="the-university-of"><path class="cls-1" d="M1312.13,260.24l-38.31.88c-14.91.29-21.06,2-24.86,7.61a29.1,29.1,0,0,0-4.39,8.48c-.58,2-1.17,3.22-2.92,3.22s-2.34-1.46-2.34-4.09c0-4.09,5-28.08,5.56-30.13.58-3.22,1.46-4.68,2.92-4.68,2,0,4.68,2,11.11,2.92a241.41,241.41,0,0,0,25.74,1.17h104.42a113.82,113.82,0,0,0,17.55-1.17c4.09-.58,6.14-1.17,7-1.17,1.76,0,2.05,1.46,2.05,5.26,0,5.26-.59,23.69-.59,30.12-.29,2.63-.88,4.09-2.34,4.09-2.05,0-2.63-1.17-2.93-5l-.29-2.63c-.59-6.43-7.31-14-30.42-14.33l-32.47-.58V360.85c0,22.81.29,42.41,1.46,53.23.88,7,2.34,11.7,9.94,12.87a96.28,96.28,0,0,0,13.16.88c2.92,0,4.1,1.46,4.1,2.63,0,1.76-2.05,2.63-5,2.63-17,0-34.22-.88-41.53-.88-5.85,0-23.4.88-33.64.88-3.22,0-5-.88-5-2.63,0-1.17.88-2.63,4.1-2.63a36.29,36.29,0,0,0,9.07-.88c5.27-1.17,6.73-5.85,7.6-13.16,1.17-10.53,1.17-30.12,1.17-52.94Z"/><path class="cls-1" d="M1593.49,326c.59,0,1.46-.29,1.46-1.76V319c0-37.73-.3-46.8-.59-54.69-.59-8.48-2.92-11.11-11.11-13.45a46.32,46.32,0,0,0-9.94-.88q-4.39,0-4.39-2.63c0-1.75,1.76-2.34,5.56-2.34,13.75,0,31.88.58,38.61.58,6.14,0,23.11-.58,33.05-.58,3.8,0,5.56.59,5.56,2.34S1649.94,250,1647,250a43.13,43.13,0,0,0-7.61.88c-6.73,1.17-8.77,4.68-9.36,13.45-.59,7.9-.59,14.92-.59,52.64v43.87c0,22.81,0,42.41,1.17,53.23.88,7,2.34,11.7,10.24,12.87a93.25,93.25,0,0,0,13.16.88c2.63,0,4.1,1.46,4.1,2.63,0,1.76-2.05,2.63-5.27,2.63-16.67,0-33.64-.88-40.66-.88-5.85,0-24,.88-33.93.88-3.51,0-5.56-.88-5.56-2.63,0-1.17,1.17-2.63,4.1-2.63a38.93,38.93,0,0,0,9.36-.88c5.27-1.17,6.73-5.85,7.6-13.16,1.17-10.53,1.17-29.54,1.17-52.35v-19a1.57,1.57,0,0,0-1.46-1.46h-97.1c-.88,0-1.76.29-1.76,1.46v19c0,22.81.29,41.82,1.46,52.65.88,7,2.34,11.7,9.94,12.87a96.33,96.33,0,0,0,13.16.88c2.92,0,4.09,1.46,4.09,2.63,0,1.76-2,2.63-5.27,2.63-16.67,0-34.51-.88-41.82-.88-5.85,0-22.81.88-33,.88-3.22,0-5-.88-5-2.63,0-1.17.88-2.63,4.09-2.63a37.9,37.9,0,0,0,9.07-.88c5.27-1.17,6.73-5.85,7.61-13.16,1.17-10.53,1.17-30.12,1.17-52.94V317c0-37.73,0-44.75-.29-52.64-.59-8.48-2.93-11.11-11.12-13.45a47.39,47.39,0,0,0-10.24-.88c-2.63,0-4.39-.88-4.39-2.63s2.05-2.34,5.56-2.34c13.75,0,30.71.58,37.73.58,6.14,0,24-.58,34.22-.58,3.51,0,5.27.59,5.27,2.34s-1.46,2.63-4.68,2.63a37.68,37.68,0,0,0-7.31.88c-7,1.17-9.07,4.68-9.65,13.45-.58,7.9-.58,17-.58,54.69v5.26a1.54,1.54,0,0,0,1.76,1.76Z"/><path class="cls-1" d="M1710.77,317c0-37.73,0-44.75-.29-52.64-.59-8.48-2.93-11.11-11.12-13.45a47.39,47.39,0,0,0-10.24-.88c-2.63,0-4.39-.88-4.39-2.63s2.05-2.34,5.85-2.34c13.45,0,29.83.59,37.14.59,8.19,0,65.22.29,70.19,0,4.68-.29,8.78-1.17,10.82-1.46,1.46-.29,2.92-1.17,4.1-1.17,1.46,0,1.76,1.17,1.76,2.34,0,1.76-1.46,4.68-2.05,16.09-.29,2.63-.88,13.45-1.46,16.38-.3,1.17-.88,4.09-2.92,4.09-1.76,0-2.05-1.17-2.05-3.22,0-1.75-.29-6.14-1.76-9.07-2-4.39-4.09-7.9-17-9.07-4.39-.59-35.1-1.17-40.36-1.17-1.17,0-1.76.88-1.76,2.34v61.42c0,1.46.29,2.63,1.76,2.63,5.85,0,39.19,0,45-.59,6.14-.58,9.65-1.46,12.28-3.8,2.05-1.75,2.93-3.22,4.1-3.22s2,1.17,2,2.63-.59,5.56-2,18.13c-.59,5-1.17,14.92-1.17,16.67,0,2-.3,5.56-2.63,5.56-1.76,0-2.34-.88-2.34-2-.29-2.63-.29-5.85-.88-9.07-1.46-5-4.68-8.77-14.33-9.65-4.68-.59-33.93-1.17-40.36-1.17-1.17,0-1.46,1.17-1.46,2.63v19.89c0,8.48-.3,29.54,0,36.85.58,17,8.48,20.77,34.8,20.77,6.73,0,17.55-.29,24.27-3.22,6.43-2.92,9.36-8.19,11.12-18.43.58-2.63,1.17-3.8,2.92-3.8,2,0,2.34,3.22,2.34,5.85,0,5.56-2,22.52-3.51,27.49-1.75,6.43-4.09,6.43-13.75,6.43-19.3,0-34.8-.29-47.38-.88-12.58-.29-22.23-.59-29.83-.59-2.92,0-8.48.29-14.62.29-6.14.29-12.58.59-17.84.59-3.22,0-5-.88-5-2.63,0-1.17.88-2.63,4.09-2.63A37.9,37.9,0,0,0,1702,427c5.27-1.17,6.73-5.85,7.61-13.16,1.17-10.53,1.17-30.12,1.17-52.94Z"/><path class="cls-1" d="M1950,317c0-37.73.29-44.75-.3-52.64-.58-8.77-2.92-11.11-11.11-13.45a46.29,46.29,0,0,0-9.94-.88q-4.39,0-4.38-2.63c0-1.75,1.75-2.34,5.56-2.34,13.75,0,31,.58,38.61.58,6.43,0,23.69-.58,33-.58,3.8,0,5.56.59,5.56,2.34s-1.46,2.63-4.09,2.63a35.72,35.72,0,0,0-7.61.88c-6.73,1.17-8.77,4.68-9.36,13.45-.59,7.9-.59,14.92-.59,52.64v34.8c0,36.27,7,50.31,19.6,60.25,11.4,9.07,23.69,9.94,32.46,9.94,11.12,0,24.28-3.22,34.51-13.16,14.33-13.45,14.92-35.1,14.92-60.54V317c0-37.73-.3-44.75-.59-52.64-.59-8.48-2.63-11.11-10.82-13.45a44.24,44.24,0,0,0-9.36-.88q-4.39,0-4.39-2.63c0-1.75,1.76-2.34,5.27-2.34,13.16,0,30.42.58,30.71.58,2.93,0,20.18-.58,30.12-.58,3.51,0,5.27.59,5.27,2.34s-1.46,2.63-4.39,2.63a35.71,35.71,0,0,0-7.6.88c-7,1.17-8.78,4.68-9.36,13.45-.29,7.9-.59,14.92-.59,52.64V343.6c0,27.78-2.92,57-24.57,74.87-18.13,15.21-37.73,17.84-54.4,17.84-13.45,0-40.07-.59-58.79-17-13.16-11.41-23.4-29.83-23.4-65.81Z"/><path class="cls-1" d="M2190.72,399.17c.59,19.3,3.81,25.15,8.78,26.91a43.7,43.7,0,0,0,13.45,1.76c2.92,0,4.39,1.17,4.39,2.63,0,2-2.34,2.63-5.85,2.63-16.67,0-28.66-.88-33.34-.88-2.34,0-14.62.88-27.79.88-3.51,0-5.85-.29-5.85-2.63,0-1.46,1.76-2.63,4.09-2.63a53,53,0,0,0,11.7-1.17c6.73-1.76,7.61-8.48,7.9-30.12l2.34-147.41c0-5,1.76-8.48,4.39-8.48,3.22,0,6.73,3.8,11.11,8.19,3.22,3.22,41.82,42.7,79.26,79.26,17.55,17.26,51.77,52.35,55.57,55.86H2322l-2.63-110.56c-.29-15.21-2.63-19.6-8.77-21.94-3.8-1.46-9.94-1.46-13.45-1.46-3.22,0-4.09-1.17-4.09-2.63,0-2,2.63-2.34,6.43-2.34,13.45,0,27.2.58,32.76.58,2.92,0,12.57-.58,25.15-.58,3.51,0,5.85.29,5.85,2.34,0,1.46-1.46,2.63-4.38,2.63a26.11,26.11,0,0,0-7.9.88c-7,2-9.07,6.43-9.36,20.47l-2.92,156.77c0,5.56-2.05,7.9-4.1,7.9-4.39,0-7.9-2.63-10.53-5.26-16.09-14.92-48.26-45.63-75.17-71.66-28.08-26.91-55.28-57-60.25-61.42h-.88Z"/><path class="cls-1" d="M2417.68,317c0-37.73,0-44.75-.29-52.64-.59-8.48-3.22-11.41-8.78-13.16a32.86,32.86,0,0,0-9.36-1.17c-2.63,0-4.1-.59-4.1-2.92,0-1.46,2-2,6.14-2,9.65,0,27.2.58,34.51.58,6.43,0,23.1-.58,33-.58,3.22,0,5.27.59,5.27,2,0,2.34-1.46,2.92-4.1,2.92a35.69,35.69,0,0,0-7.6.88c-7,1.17-9.07,4.68-9.65,13.45-.58,7.9-.58,14.92-.58,52.64v43.87c0,24,0,43.87,1.17,54.4.88,6.73,2.63,10.53,10.24,11.7a96.33,96.33,0,0,0,13.16.88c2.92,0,4.09,1.46,4.09,2.63,0,1.76-2,2.63-5,2.63-17,0-34.51-.88-41.53-.88-5.85,0-23.4.88-33.64.88-3.22,0-5-.88-5-2.63,0-1.17.88-2.63,4.09-2.63a37.9,37.9,0,0,0,9.07-.88c5.27-1.17,6.73-4.68,7.61-12,1.17-10.24,1.17-30.12,1.17-54.11Z"/><path class="cls-1" d="M2509.51,269.31c-5.85-13.75-9.65-16.09-19-18.43a45.38,45.38,0,0,0-9.94-.88c-2.34,0-2.93-1.17-2.93-2.63,0-2,2.63-2.34,6.43-2.34,13.75,0,28.37.58,37.44.58,6.43,0,19.89-.58,32.76-.58,3.22,0,6.14.59,6.14,2.34s-1.76,2.63-4.09,2.63c-4.1,0-7.9.29-9.94,1.75a5.42,5.42,0,0,0-2.63,5c0,3.22,2.34,9.94,5.85,18.72l43.29,111.43h.88c11.11-25.74,44.16-105.87,50.31-122.25,1.17-3.22,2.34-7,2.34-9.07,0-2.63-1.17-3.51-3.51-4.39a39.24,39.24,0,0,0-10.24-1.17c-2.34,0-4.39-.88-4.39-2.63s2.34-2.34,7.31-2.34c12.87,0,24.28.58,27.49.58,4.39,0,16.38-.58,24.28-.58,3.22,0,5.27.59,5.27,2.34s-1.46,2.63-4.1,2.63-8.19-.29-12.57,2.93c-3.22,2.34-6.73,6.14-13.45,21.94-10.24,23.4-17,36.85-31,67.27-16.38,36.27-28.37,63.47-34.22,76-6.43,14.33-8.77,18.13-12.28,18.13s-5.56-3.22-10.53-14.92Z"/><path class="cls-1" d="M2717.17,317c0-37.73,0-44.75-.29-52.64-.59-8.48-2.93-11.11-11.12-13.45a47.39,47.39,0,0,0-10.24-.88c-2.63,0-4.39-.88-4.39-2.63s2.05-2.34,5.85-2.34c13.45,0,29.83.59,37.14.59,8.19,0,65.22.29,70.19,0,4.68-.29,8.78-1.17,10.82-1.46,1.46-.29,2.92-1.17,4.1-1.17,1.46,0,1.76,1.17,1.76,2.34,0,1.76-1.46,4.68-2.05,16.09-.29,2.63-.88,13.45-1.46,16.38-.29,1.17-.88,4.09-2.92,4.09-1.76,0-2.05-1.17-2.05-3.22,0-1.75-.29-6.14-1.76-9.07-2-4.39-4.09-7.9-17-9.07-4.39-.59-35.1-1.17-40.36-1.17-1.17,0-1.76.88-1.76,2.34v61.42c0,1.46.29,2.63,1.76,2.63,5.85,0,39.19,0,45-.59,6.14-.58,9.65-1.46,12.28-3.8,2.05-1.75,2.93-3.22,4.1-3.22s2,1.17,2,2.63-.59,5.56-2,18.13c-.59,5-1.17,14.92-1.17,16.67,0,2-.29,5.56-2.63,5.56-1.76,0-2.34-.88-2.34-2-.29-2.63-.29-5.85-.88-9.07-1.46-5-4.68-8.77-14.33-9.65-4.68-.59-33.93-1.17-40.36-1.17-1.17,0-1.46,1.17-1.46,2.63v19.89c0,8.48-.3,29.54,0,36.85.58,17,8.48,20.77,34.8,20.77,6.73,0,17.55-.29,24.27-3.22,6.43-2.92,9.36-8.19,11.12-18.43.58-2.63,1.17-3.8,2.92-3.8,2,0,2.34,3.22,2.34,5.85,0,5.56-2,22.52-3.51,27.49-1.75,6.43-4.09,6.43-13.75,6.43-19.3,0-34.8-.29-47.38-.88-12.58-.29-22.23-.59-29.83-.59-2.92,0-8.48.29-14.62.29-6.14.29-12.58.59-17.84.59-3.22,0-5-.88-5-2.63,0-1.17.88-2.63,4.09-2.63a37.9,37.9,0,0,0,9.07-.88c5.27-1.17,6.73-5.85,7.61-13.16,1.17-10.53,1.17-30.12,1.17-52.94Z"/><path class="cls-1" d="M2876.86,317c0-37.73,0-44.75-.29-52.64-.59-8.48-2.93-11.11-11.12-13.45a47.39,47.39,0,0,0-10.24-.88c-2.63,0-4.39-.88-4.39-2.63s2.05-2.34,5.85-2.34c13.45,0,29.83.58,35.1.58,8.78,0,32.17-.58,40.07-.58,16.38,0,35.1,1.46,48.85,10.53,7.31,5,18.13,17.55,18.13,34.22,0,18.43-10.53,34.8-35.68,55,22.81,28.08,40.95,50.6,56.45,66.1,14.33,14.33,23.4,15.5,27.49,16.38a24,24,0,0,0,6.14.59,3,3,0,0,1,3.22,2.63c0,2-1.76,2.63-5,2.63H3026.9c-14.33,0-21.35-1.46-28.08-5-11.11-5.56-20.76-17.26-35.1-36.56-10.24-13.45-21.06-30.12-24.28-33.93a5.92,5.92,0,0,0-4.68-1.75l-23.1-.59a1.85,1.85,0,0,0-2,2v3.51c0,23.11.29,42.41,1.46,52.94.88,7.31,2.05,12,9.94,13.16a97.63,97.63,0,0,0,12.58.88,3,3,0,0,1,3.22,2.63c0,1.76-2.05,2.63-5.27,2.63-14.92,0-36.27-.88-40.07-.88-5,0-21.35.88-31.59.88-3.22,0-5-.88-5-2.63,0-1.17.88-2.63,4.09-2.63a37.9,37.9,0,0,0,9.07-.88c5.27-1.17,6.73-5.85,7.61-13.16,1.17-10.53,1.17-30.12,1.17-52.94Zm32.76,19.3c0,2.63.58,3.51,2.34,4.39,5.56,1.76,13.16,2.34,19.6,2.34,10.24,0,13.75-.88,18.13-4.09,7.89-5.56,16.67-16.38,16.67-36.85,0-35.1-24-44.16-39.19-44.16-6.43,0-12.58.29-15.21.88-1.76.59-2.34,1.46-2.34,3.51Z"/><path class="cls-1" d="M3056.15,429.88c-4.09-1.76-5-2.93-5-8.48,0-13.45,1.17-29,1.46-33,0-3.8,1.17-6.43,3.22-6.43,2.34,0,2.63,2.34,2.63,4.09a46.38,46.38,0,0,0,2.34,12.87c5.56,18.43,24.86,24.57,40.95,24.57,22.23,0,35.68-14,35.68-31.59,0-10.82-2.63-21.64-25.45-35.1L3097.1,348c-30.42-17.84-40.36-34.51-40.36-56.45,0-30.42,29.25-50,64.93-50a152.66,152.66,0,0,1,36.56,4.09c2.34.58,3.51,1.46,3.51,3.22,0,3.22-.88,10.24-.88,29.83,0,5.26-1.17,7.9-3.22,7.9q-2.63,0-2.63-4.39a28.09,28.09,0,0,0-6.73-16.38c-3.8-4.68-12-11.7-28.66-11.7-18.43,0-35.1,9.65-35.1,26.61,0,11.11,4.1,19.89,27.2,32.76l10.53,5.85c33.93,18.72,44.46,37.73,44.46,60.25,0,18.43-7,33.34-25.74,46.5-12.29,8.77-29.25,10.24-43,10.24C3083.06,436.31,3067.26,434.85,3056.15,429.88Z"/><path class="cls-1" d="M3219.35,317c0-37.73,0-44.75-.29-52.64-.59-8.48-3.22-11.41-8.78-13.16a32.84,32.84,0,0,0-9.36-1.17c-2.63,0-4.09-.59-4.09-2.92,0-1.46,2-2,6.14-2,9.65,0,27.2.58,34.51.58,6.43,0,23.11-.58,33-.58,3.22,0,5.27.59,5.27,2,0,2.34-1.46,2.92-4.09,2.92a35.75,35.75,0,0,0-7.61.88c-7,1.17-9.07,4.68-9.65,13.45-.59,7.9-.59,14.92-.59,52.64v43.87c0,24,0,43.87,1.17,54.4.88,6.73,2.63,10.53,10.24,11.7a96.32,96.32,0,0,0,13.16.88c2.92,0,4.1,1.46,4.1,2.63,0,1.76-2.05,2.63-5,2.63-17,0-34.51-.88-41.53-.88-5.85,0-23.4.88-33.64.88-3.22,0-5-.88-5-2.63,0-1.17.88-2.63,4.1-2.63a37.92,37.92,0,0,0,9.07-.88c5.27-1.17,6.73-4.68,7.6-12,1.17-10.24,1.17-30.12,1.17-54.11Z"/><path class="cls-1" d="M3369.68,260.24l-38.31.88c-14.91.29-21.06,2-24.86,7.61a29.09,29.09,0,0,0-4.39,8.48c-.58,2-1.17,3.22-2.92,3.22s-2.34-1.46-2.34-4.09c0-4.09,5-28.08,5.56-30.13.58-3.22,1.46-4.68,2.92-4.68,2,0,4.68,2,11.11,2.92a241.41,241.41,0,0,0,25.74,1.17h104.42a113.82,113.82,0,0,0,17.55-1.17c4.09-.58,6.14-1.17,7-1.17,1.76,0,2.05,1.46,2.05,5.26,0,5.26-.59,23.69-.59,30.12-.29,2.63-.88,4.09-2.34,4.09-2.05,0-2.63-1.17-2.93-5l-.29-2.63c-.59-6.43-7.31-14-30.42-14.33l-32.47-.58V360.85c0,22.81.29,42.41,1.46,53.23.88,7,2.34,11.7,9.94,12.87a96.27,96.27,0,0,0,13.16.88c2.92,0,4.1,1.46,4.1,2.63,0,1.76-2.05,2.63-5,2.63-17,0-34.22-.88-41.53-.88-5.85,0-23.4.88-33.63.88-3.22,0-5-.88-5-2.63,0-1.17.88-2.63,4.1-2.63a36.29,36.29,0,0,0,9.07-.88c5.27-1.17,6.73-5.85,7.6-13.16,1.17-10.53,1.17-30.12,1.17-52.94Z"/><path class="cls-1" d="M3546.92,368.46c0-13.45-2.34-18.72-5.85-26-1.76-3.8-36.85-58.5-45.92-71.66-6.43-9.07-11.7-14.92-16.67-17.55-3.22-1.76-7.6-3.22-10.82-3.22-2,0-3.8-.88-3.8-2.63s1.76-2.34,5-2.34c4.39,0,23.69.58,32.17.58,5.56,0,17.55-.58,29.25-.58,2.34,0,3.8.59,3.8,2.34,0,2-1.76,2-5.85,3.22-2,.59-3.51,1.76-3.51,3.8s1.17,5,3.22,8.48c4.68,7.6,38.31,65.81,42.7,72.83,3.22-5.85,34.51-59.08,38.31-66.68,2.63-5.56,3.8-9.94,3.8-13.16,0-2.34-1.17-4.68-5.56-5.56-2.34-.58-4.68-.88-4.68-2.93,0-1.75,1.46-2.34,4.39-2.34,8.48,0,17.55.58,25.15.58,5.56,0,22.52-.58,27.49-.58,2.92,0,4.68.59,4.68,2,0,1.76-2,2.92-5,2.92a31.38,31.38,0,0,0-11.11,2.93c-5.56,2.63-7.9,5-13.45,11.7-8.48,9.94-45.33,69-50,79.55-3.81,9.07-3.22,16.67-3.22,24.86v19.89c0,4.09,0,14.33.59,24.86.58,7.31,2.92,12,10.53,13.16a98.56,98.56,0,0,0,12.87.88c2.93,0,4.39,1.46,4.39,2.63,0,1.76-2,2.63-5.56,2.63-16.09,0-33.34-.88-40.36-.88-6.43,0-23.69.88-33.34.88-3.51,0-5.56-.59-5.56-2.63,0-1.17,1.17-2.63,4.1-2.63a39.63,39.63,0,0,0,9.07-.88c5.26-1.17,7.31-5.85,7.89-13.16.88-10.53.88-20.77.88-24.86Z"/><path class="cls-1" d="M3687.85,400.19q0-14.61,6.82-31.84t19.48-27.95q12.66-10.72,24.6-10.72,10.84,0,17.84,9.19t7,24.9a85.74,85.74,0,0,1-7.79,36q-7.79,17.05-19.54,26.12T3713.18,435q-10.11,0-17.72-7.79T3687.85,400.19Zm13,14a18.37,18.37,0,0,0,3.41,11.2,11,11,0,0,0,9.38,4.63q16.32,0,26.85-30.93t10.53-47.25q0-8.4-3.23-12.6t-9.68-4.2q-15.22,0-26.24,28.68T3700.88,414.19Z"/><path class="cls-1" d="M3843.06,332.48l-1.58,5.36h-21.31l-18.88,71.24Q3788.38,457.42,3773,474t-33.73,16.56a36.2,36.2,0,0,1-18.45-4.75q-8.22-4.75-8.22-11.81a8.9,8.9,0,0,1,2.56-6.57,8.17,8.17,0,0,1,6-2.56,8.05,8.05,0,0,1,6.45,2.86,9.31,9.31,0,0,1,2.43,6.15,21.69,21.69,0,0,1-.36,3l-.25,2.07q0,2.31,2.92,4.26a12.46,12.46,0,0,0,7.06,1.95q14.61,0,24.6-15.59t22.65-62.47l18.63-69.29h-24l1.58-5.36H3807q.36-1.46,1.95-7.06,16.44-60.64,53.22-60.64,10.47,0,16,4.63t5.54,9.13q0,6.46-6.09,6.45-4.87,0-10.35-8.4-3.9-6.09-9.38-6.09-8.28,0-15.83,7.61t-16.68,41.34l-3.53,13Z"/></g><g id="tulsa"><path class="cls-1" d="M1559.34,901.11c0,76.8,0,140,4.4,173.61,2.64,23.2,7.92,40.8,34.31,44,12.31,1.6,31.67,3.2,39.59,3.2,5.28,0,7,2.4,7,4.8,0,4-4.4,6.4-14.08,6.4-48.38,0-103.8-2.4-108.2-2.4s-59.82,2.4-86.21,2.4c-9.68,0-14.08-1.6-14.08-6.4,0-2.4,1.76-4.8,7-4.8,7.92,0,18.47-1.6,26.39-3.2,17.6-3.2,22-20.8,25.51-44,4.4-33.6,4.4-96.8,4.4-173.61V562.7l-130.19,1.6c-54.54.8-75.65,6.4-89.73,25.6-9.68,13.6-12.32,19.2-15,24.8-2.64,6.4-5.28,8-8.8,8-2.64,0-4.4-2.4-4.4-7.2,0-8,17.59-76.8,19.35-83.2,1.76-4.8,5.28-15.2,8.8-15.2,6.16,0,15,8,38.71,9.6,25.51,2.4,58.94,4,69.49,4h329.89c28.15,0,48.38-1.6,62.46-4,13.19-1.6,21.11-4,24.63-4,4.4,0,4.4,4.8,4.4,9.6,0,24-2.64,79.2-2.64,88,0,7.2-2.64,10.4-6.16,10.4-4.4,0-6.16-2.4-7-13.6l-.88-8.8c-2.64-24-23.75-42.4-108.2-44l-110.84-1.6Z"/><path class="cls-1" d="M1893.9,760.31c0-124.8,0-147.21-1.76-172.81-1.76-27.2-8.8-40-37.83-45.6-7-1.6-22-2.4-29.91-2.4-3.52,0-7-1.6-7-4.8,0-4.8,4.4-6.4,14.08-6.4,39.58,0,93.25,2.4,101.16,2.4s60.7-2.4,87.09-2.4c9.68,0,14.07,1.6,14.07,6.4,0,3.2-3.52,4.8-7,4.8-6.16,0-11.44.8-22,2.4-23.75,3.2-30.79,17.6-32.55,45.6-1.76,25.6-1.76,48-1.76,172.81v112c0,115.2,28.15,164.81,66,197.61,43.1,36.8,82.69,44,132.84,44,53.66,0,106.44-23.2,138.11-57.6,40.47-45.6,51-113.61,51-196v-100c0-124.8,0-147.21-1.76-172.81-1.76-27.2-8.8-40-37.83-45.6-7-1.6-22-2.4-29.91-2.4-3.52,0-7-1.6-7-4.8,0-4.8,4.4-6.4,14.07-6.4,39.59,0,88,2.4,93.25,2.4,6.16,0,47.51-2.4,73.9-2.4,9.67,0,14.08,1.6,14.08,6.4,0,3.2-3.52,4.8-7,4.8-6.16,0-11.44.8-22,2.4-23.75,4.8-30.79,17.6-32.55,45.6-1.76,25.6-1.76,48-1.76,172.81v85.6c0,86.4-10.56,182.4-80.93,239.21-63.34,51.2-129.31,59.2-181.22,59.2-29.91,0-118.76-3.2-181.22-56.8-43.11-37.6-76.53-93.61-76.53-210.41Z"/><path class="cls-1" d="M2661,902.72c0,117.6,3.52,168.81,19.35,183.21,14.08,12.8,36.95,18.4,105.57,18.4,46.62,0,85.33-.8,106.44-24,11.44-12.8,20.23-32.8,22.87-48,.88-6.4,2.64-10.4,7.92-10.4,4.4,0,5.28,3.2,5.28,12s-6.16,56.8-13.2,80c-6.16,18.4-8.8,21.6-55.42,21.6-63.34,0-109.08-1.6-146-2.4-36.95-1.6-64.22-2.4-89.73-2.4-3.52,0-18.47.8-36.07.8-17.59.8-36.95,1.6-50.14,1.6-9.67,0-14.08-1.6-14.08-6.4,0-2.4,1.76-4.8,7-4.8,7.92,0,18.47-1.6,26.39-3.2,17.59-3.2,22-20.8,25.51-44,4.4-33.6,4.4-96.8,4.4-173.61V760.31c0-124.8,0-147.21-1.76-172.81-1.76-27.2-8.8-40-37.83-45.6-7-1.6-22-2.4-29.91-2.4-3.52,0-7-1.6-7-4.8,0-4.8,4.4-6.4,14.08-6.4,39.59,0,95,2.4,99.41,2.4s68.61-2.4,95-2.4c9.68,0,14.08,1.6,14.08,6.4,0,3.2-3.52,4.8-7,4.8a226.55,226.55,0,0,0-29,2.4c-25.51,4-32.55,17.6-34.31,45.6-1.76,25.6-1.76,48-1.76,172.81Z"/><path class="cls-1" d="M2987.55,1122.72c-12.32-5.6-13.2-8.8-13.2-30.4,0-40,3.52-72,4.4-84.8.88-8.8,2.64-12.8,7-12.8,5.28,0,6.16,2.4,6.16,8.8,0,7.2,0,18.4,2.64,29.6,13.2,59.2,71.26,81.6,130.19,81.6,84.45,0,125.8-55.2,125.8-106.4,0-55.2-25.51-87.2-101.17-144l-39.58-29.6c-93.25-69.61-114.36-119.21-114.36-173.61,0-85.6,70.38-144,182.1-144,34.31,0,59.82,3.2,81.81,8,16.71,3.2,23.75,4,30.79,4s8.8,1.6,8.8,5.6-3.52,30.4-3.52,84.81c0,12.8-1.76,18.4-6.16,18.4-5.28,0-6.16-4-7-10.4-.88-9.6-6.16-31.2-11.44-40s-29-42.4-110-42.4c-60.7,0-108.2,34.4-108.2,92.8,0,45.6,22.87,74.4,107.32,134.41l24.63,17.6c103.8,74.41,128.43,124,128.43,188,0,32.8-14.08,93.6-74.77,132.81-37.83,24-85.33,33.6-132.84,33.6C3064.08,1144.33,3023.62,1138.72,2987.55,1122.72Z"/><path class="cls-1" d="M3588.68,549.64c10.56-26.4,14.08-31.2,19.35-31.2s8.8,4,19.35,28.8c13.19,30.4,151.31,360.82,205,482.42,31.67,71.2,57.18,84,75.65,88.8,13.2,4,26.39,4.8,35.19,4.8,5.28,0,8.8.8,8.8,4.8,0,4.8-7.92,6.4-17.6,6.4-13.19,0-77.41,0-138.11-1.6-16.72-.8-26.39-.8-26.39-5.6,0-3.2,2.64-4.8,6.16-5.6,5.28-1.6,10.56-8.8,5.28-21.6l-81.81-196.81c-1.76-3.2-3.52-4.8-7.92-4.8H3502.47c-4.4,0-7,2.4-8.8,6.4l-52.78,141.61c-7.92,20-12.32,39.21-12.32,53.6,0,16,18.47,23.2,33.43,23.2h8.8c6.16,0,8.8,1.6,8.8,4.8,0,4.8-5.28,6.4-13.2,6.4-21.11,0-58.94-2.4-68.61-2.4s-58.06,2.4-99.41,2.4c-11.44,0-16.71-1.6-16.71-6.4,0-3.2,3.52-4.8,7.92-4.8,6.16,0,18.47-.8,25.51-1.6,40.47-4.8,58.06-35.2,73.9-75.2Zm91.49,320c4.4,0,4.4-2.4,3.52-5.6l-83.57-216q-6.6-18-13.19,0l-77.41,216c-1.76,4,0,5.6,2.64,5.6Z"/></g></g></g></svg>